<svg width="279" height="95" viewBox="0 0 279 95" fill="none" xmlns="http://www.w3.org/2000/svg">
<path fill-rule="evenodd" clip-rule="evenodd" d="M246.991 22.861V45.723L238.241 46.276C227.076 46.982 221.228 49.083 215.108 54.584C209.904 59.263 207.676 63.598 206.569 71.196C204.433 85.856 215.351 94.018 237.057 93.986C249.119 93.969 250.991 93.47 250.991 90.276C250.991 88.309 250.623 87.931 249.241 88.474C248.279 88.852 243.426 89.411 238.458 89.715C227.656 90.376 219.664 88.468 214.718 84.045C211.718 81.363 211.493 80.714 211.517 74.83C211.583 58.976 221.836 51 242.15 51H250.991V25.5C250.991 0.667 250.939 0 248.991 0C247.049 0 246.991 0.667 246.991 22.861ZM0.606746 43.291C-1.01825 44.479 -0.0832548 46.456 12.3147 68.041C23.3937 87.331 26.2057 91.547 28.1397 91.765C30.2527 92.003 31.5997 89.909 41.4697 71.029C49.8407 55.018 52.7157 50.323 53.5747 51.265C54.1947 51.944 59.7497 61.388 65.9197 72.25C75.1437 88.486 77.5267 91.996 79.3147 91.98C81.1317 91.963 83.5097 88.107 93.7407 68.584C100.479 55.727 105.991 44.952 105.991 44.639C105.991 44.326 105.125 43.607 104.066 43.04C102.316 42.103 101.119 43.953 90.8257 63.505C84.6027 75.327 79.2817 84.991 79.0007 84.98C78.7207 84.969 73.3017 75.631 66.9587 64.23C57.1857 46.662 55.0477 43.455 52.9437 43.206C50.6537 42.935 49.6167 44.54 39.5367 63.956C33.5287 75.53 28.3597 84.992 28.0517 84.981C27.7427 84.971 21.9457 75.296 15.1677 63.481C8.39075 51.667 2.73875 42 2.60875 42C2.47975 42 1.57875 42.581 0.606746 43.291ZM122.991 66.883C122.991 91.897 123.517 95 127.759 95C129.741 95 130.046 94.668 129.366 93.25C128.905 92.287 128.294 80.925 128.009 68C127.493 44.569 127.484 44.499 125.241 44.18L122.991 43.861V66.883ZM157.163 49.074C149 53.755 148.04 56.658 148.013 76.75L147.991 93H150.491H152.991L152.995 76.75C152.998 62.615 153.243 60.099 154.877 57.42C157.412 53.263 163.292 50.511 169.491 50.581C175.52 50.649 180.031 52.845 183.162 57.235C185.33 60.275 185.514 61.622 185.827 76.75C186.142 91.973 186.284 93 188.077 93C189.885 93 189.991 92.085 189.991 76.46C189.991 61.957 189.748 59.443 188.014 56.044C184.644 49.439 178.013 45.995 168.694 46.009C163.617 46.017 161.524 46.573 157.163 49.074ZM271.741 82.08C269.24 83.537 269.444 88.637 272.058 90.036C273.666 90.896 274.666 90.788 276.558 89.548C279.347 87.72 279.701 84.853 277.42 82.571C275.612 80.764 274.21 80.642 271.741 82.08Z" fill="white"/>
</svg>
